<svg xmlns="http://www.w3.org/2000/svg" width="1198.527" height="272.875" viewBox="0 0 1198.527 272.875">
  <metadata><?xpacket begin="﻿" id="W5M0MpCehiHzreSzNTczkc9d"?>
<x:xmpmeta xmlns:x="adobe:ns:meta/" x:xmptk="Adobe XMP Core 5.6-c138 79.159824, 2016/09/14-01:09:01        ">
   <rdf:RDF xmlns:rdf="http://www.w3.org/1999/02/22-rdf-syntax-ns#">
      <rdf:Description rdf:about=""/>
   </rdf:RDF>
</x:xmpmeta>
                                                                                                    
                                                                                                    
                                                                                                    
                                                                                                    
                                                                                                    
                                                                                                    
                                                                                                    
                                                                                                    
                                                                                                    
                                                                                                    
                                                                                                    
                                                                                                    
                                                                                                    
                                                                                                    
                                                                                                    
                                                                                                    
                                                                                                    
                                                                                                    
                                                                                                    
                                                                                                    
                           
<?xpacket end="w"?></metadata>
<defs>
    <style>
      .cls-1 {
        fill: #FAFFFD;
        fill-rule: evenodd;
      }
    </style>
  </defs>
  <path id="_HOLA_copy" data-name="¡HOLA! copy" class="cls-1" d="M114.963,518.665a7.5,7.5,0,0,0,1.98-6.12l-9-155.16a9.812,9.812,0,0,0-2.88-6.12,8.354,8.354,0,0,0-6.12-2.52H58.984a8.775,8.775,0,0,0-6.48,2.52,9.762,9.762,0,0,0-2.88,6.12l-9,155.16a7.466,7.466,0,0,0,1.98,6.12,8.166,8.166,0,0,0,6.3,2.52h60.119A7.755,7.755,0,0,0,114.963,518.665Zm-2.7-196.2a8.334,8.334,0,0,0,2.52-6.12v-49.68a8.6,8.6,0,0,0-8.64-8.64h-54a8.187,8.187,0,0,0-6.3,2.52,8.661,8.661,0,0,0-2.34,6.12v49.68a8.641,8.641,0,0,0,2.34,6.12,8.166,8.166,0,0,0,6.3,2.52h54A8.331,8.331,0,0,0,112.263,322.465Zm250.56-62.28a8.356,8.356,0,0,0-6.12-2.52h-54a8.18,8.18,0,0,0-6.3,2.515,8.6,8.6,0,0,0-2.34,6.1v85.016a8.567,8.567,0,0,1-8.606,8.612H211.589a8.134,8.134,0,0,1-6.277-2.509,8.646,8.646,0,0,1-2.329-6.1V266.277a8.274,8.274,0,0,0-2.537-6.1,8.4,8.4,0,0,0-6.148-2.515h-53.91a8.255,8.255,0,0,0-6.334,2.52,8.648,8.648,0,0,0-2.351,6.12v246.24a8.628,8.628,0,0,0,2.351,6.12,8.234,8.234,0,0,0,6.334,2.52H194.3a8.633,8.633,0,0,0,8.685-8.64v-77.04a8.7,8.7,0,0,1,2.329-6.12,8.145,8.145,0,0,1,6.277-2.52h73.868a8.585,8.585,0,0,1,8.606,8.64v77.04a8.64,8.64,0,0,0,2.34,6.12,8.166,8.166,0,0,0,6.3,2.52h54a8.6,8.6,0,0,0,8.64-8.64V266.305A8.357,8.357,0,0,0,362.823,260.185ZM387.3,442.345a140.74,140.74,0,0,0,29.16,43.38,136.938,136.938,0,0,0,43.2,29.34,135.054,135.054,0,0,0,105.84,0,138.131,138.131,0,0,0,72.72-72.72,135.054,135.054,0,0,0,0-105.84,138.131,138.131,0,0,0-72.72-72.72,135.054,135.054,0,0,0-105.84,0,137.038,137.038,0,0,0-43.2,29.34,140.811,140.811,0,0,0-29.16,43.38A135.054,135.054,0,0,0,387.3,442.345Zm65.52-78.66a67.289,67.289,0,0,1,13.86-21.6,69.278,69.278,0,0,1,20.7-14.76,59.693,59.693,0,0,1,50.4,0,71.711,71.711,0,0,1,20.88,14.76,66,66,0,0,1,14.04,21.6,68.436,68.436,0,0,1-14.04,73.26,69.9,69.9,0,0,1-20.88,14.94,59.693,59.693,0,0,1-50.4,0,67.585,67.585,0,0,1-20.7-14.94,69.958,69.958,0,0,1-13.86-21.6A68.709,68.709,0,0,1,452.819,363.685Zm403.915,93.78a8.356,8.356,0,0,0-6.12-2.52H742.254a8.167,8.167,0,0,1-6.3-2.52,8.645,8.645,0,0,1-2.34-6.12v-180a8.6,8.6,0,0,0-8.64-8.64h-54a8.188,8.188,0,0,0-6.3,2.52,8.665,8.665,0,0,0-2.34,6.12v246.24a8.645,8.645,0,0,0,2.34,6.12,8.167,8.167,0,0,0,6.3,2.52h179.64a8.6,8.6,0,0,0,8.64-8.64v-48.96A8.353,8.353,0,0,0,856.734,457.465Zm14.4,52.2a8.434,8.434,0,0,0-1.08,5.04,7.13,7.13,0,0,0,1.62,3.6,7.726,7.726,0,0,0,3.24,2.16,10.98,10.98,0,0,0,3.78.72h61.92a12.282,12.282,0,0,0,7.02-2.34,13.391,13.391,0,0,0,4.86-5.58l10.08-21.6a13.342,13.342,0,0,1,4.86-5.58,12.818,12.818,0,0,1,7.38-2.34h75.959a12.307,12.307,0,0,1,7.02,2.34,16.484,16.484,0,0,1,5.22,5.58l9.72,21.6a16.43,16.43,0,0,0,5.22,5.58,12.788,12.788,0,0,0,7.38,2.34h61.56q5.76,0,7.74-3.6a7.371,7.371,0,0,0,.54-6.84l-105.12-244.8a13.4,13.4,0,0,0-4.86-5.58,12.307,12.307,0,0,0-7.02-2.34h-50.4a12.818,12.818,0,0,0-7.38,2.34,13.342,13.342,0,0,0-4.86,5.58Zm120.24-89.46q-1.443-2.337,0-5.58l18-43.56q1.44-3.24,3.24-3.24t3.24,3.24q4.32,10.446,9.36,22.5t8.64,21.06q1.8,3.24.18,5.58t-5.22,2.34H996.771Q992.805,422.545,991.371,420.205Zm235.8,7.74a9.866,9.866,0,0,0,2.88-6.12l9-155.16a7.555,7.555,0,0,0-1.98-6.3,8.088,8.088,0,0,0-5.94-2.34h-60.12a8.49,8.49,0,0,0-6.3,2.34,7.43,7.43,0,0,0-1.98,6.3l9,155.16a9.66,9.66,0,0,0,2.88,6.12,8.732,8.732,0,0,0,6.48,2.52h39.96A8.356,8.356,0,0,0,1227.17,427.945Zm7.2,90.72a8.361,8.361,0,0,0,2.52-6.12v-49.68a8.226,8.226,0,0,0-2.52-6.3,8.711,8.711,0,0,0-6.12-2.34h-54a8.065,8.065,0,0,0-8.64,8.64v49.68a8.614,8.614,0,0,0,2.34,6.12,8.145,8.145,0,0,0,6.3,2.52h54A8.356,8.356,0,0,0,1234.37,518.665Z" transform="translate(-40.563 -253)"/>
</svg>
