<svg xmlns="http://www.w3.org/2000/svg" width="820.906" height="119.438" viewBox="0 0 820.906 119.438">
  <metadata><?xpacket begin="﻿" id="W5M0MpCehiHzreSzNTczkc9d"?>
<x:xmpmeta xmlns:x="adobe:ns:meta/" x:xmptk="Adobe XMP Core 5.6-c138 79.159824, 2016/09/14-01:09:01        ">
   <rdf:RDF xmlns:rdf="http://www.w3.org/1999/02/22-rdf-syntax-ns#">
      <rdf:Description rdf:about=""/>
   </rdf:RDF>
</x:xmpmeta>
                                                                                                    
                                                                                                    
                                                                                                    
                                                                                                    
                                                                                                    
                                                                                                    
                                                                                                    
                                                                                                    
                                                                                                    
                                                                                                    
                                                                                                    
                                                                                                    
                                                                                                    
                                                                                                    
                                                                                                    
                                                                                                    
                                                                                                    
                                                                                                    
                                                                                                    
                                                                                                    
                           
<?xpacket end="w"?></metadata>
<defs>
    <style>
      .cls-1 {
        fill: #fa7d81;
        fill-rule: evenodd;
      }
    </style>
  </defs>
  <path id="logo_name" class="cls-1" d="M265.992,169.472V128.816l41.44-1.54V103.56l-41.44-1.54V89.084a6.84,6.84,0,0,1,1.694-4.389q1.694-2.079,5.546-2.079h41.9v-25.1q-8.935-1.231-18.871-1.771t-18.409-.616q-8.475-.076-13.249-0.077a39.548,39.548,0,0,0-9.859,1.309,25.794,25.794,0,0,0-9.243,4.466,22.971,22.971,0,0,0-6.779,8.7q-2.62,5.544-2.619,13.86v86.086h29.887Zm87.5,0V130.048h11.4l16.022,39.424h30.348L391.388,125.12a38.383,38.383,0,0,0,6.085-4.312,23.215,23.215,0,0,0,4.93-6.083,32.884,32.884,0,0,0,3.312-8.855,54.286,54.286,0,0,0,1.233-12.32q0-11.24-2.542-18.634a28.826,28.826,0,0,0-7.164-11.781A26.4,26.4,0,0,0,386.305,56.9,49.253,49.253,0,0,0,372.44,55.05H323.605V169.472h29.886Zm0-87.626h13.557a13.716,13.716,0,0,1,4.314.616,7.985,7.985,0,0,1,3.158,1.925,7.889,7.889,0,0,1,1.925,3.619,22.554,22.554,0,0,1,.616,5.7,23.478,23.478,0,0,1-.616,5.775,9.714,9.714,0,0,1-1.925,3.927,7.581,7.581,0,0,1-3.158,2.233,12.273,12.273,0,0,1-4.314.693H353.491V81.846Zm90.891,87.626L448.85,151.3H483.2l4.621,18.172H518.79L484.9,55.05H447.617L413.726,169.472h30.656ZM465.95,80.46L476.271,124.5H455.782Zm88.116,89.012V105.716l40.207,63.756H618V55.05H588.111v63.756L547.9,55.05H524.179V169.472h29.887ZM686.7,169.78a104.959,104.959,0,0,0,12.093-1.694,54.08,54.08,0,0,0,9.012-2.618V142.214q-4.314.618-11.631,1t-19.025.385a27.434,27.434,0,0,1-9.783-1.463,11.107,11.107,0,0,1-5.777-4.928,25.874,25.874,0,0,1-2.773-9.625,127.32,127.32,0,0,1-.77-15.4,108.618,108.618,0,0,1,1-16.555q1-6.237,3.158-9.471a10.3,10.3,0,0,1,5.777-4.312,31.445,31.445,0,0,1,8.858-1.078q6.931,0,12.863.385t10.553,1q4.621,0.617,7.548,1.232V60.132a56.441,56.441,0,0,0-8.242-2.772,102.856,102.856,0,0,0-12.478-2.387,125.955,125.955,0,0,0-16.869-1,57.059,57.059,0,0,0-16.945,2.387,29.421,29.421,0,0,0-13.326,8.624q-5.625,6.237-8.7,17.633t-3.081,29.26q0,18.48,2.927,30.03t8.473,17.71a28.594,28.594,0,0,0,13.248,8.47,60.569,60.569,0,0,0,17.408,2.31Q679.771,170.4,686.7,169.78Zm59.463-93.786q3.385,0,3.389-3.542V55.358a4.366,4.366,0,0,0-.847-2.772,3.042,3.042,0,0,0-2.542-1.078H722.751q-3.7,0-3.7,3.85V72.452q0,3.544,3.7,3.542h23.416Zm3.081,93.478V86.466H719.362v83.006h29.886Zm69.785-1.771a24.948,24.948,0,0,0,14.481-10.395q5.084-7.7,5.084-22.33v-5.082a34.26,34.26,0,0,0-3.62-15.939,26.709,26.709,0,0,0-10.784-11.088q-7.164-4.079-17.947-4.081H796.079q-5.083,0-7.548-2a7.093,7.093,0,0,1-2.465-5.852v-1.54A7.3,7.3,0,0,1,787.915,84a9.632,9.632,0,0,1,5.237-2.464,43.5,43.5,0,0,1,7.7-.616q7.239,0,16.1.385t15.945,1V58.592q-4.47-1.076-10.091-2.079t-12.016-1.694a126.746,126.746,0,0,0-13.633-.693q-19.1,0-29.27,8.393T757.72,87.852v5.082q0,18.48,9.243,26.334t27.114,7.854h8.164a9.477,9.477,0,0,1,5.623,1.694,5.827,5.827,0,0,1,2.388,5.082v1.848a6.244,6.244,0,0,1-1.694,4.62,10.253,10.253,0,0,1-5.084,2.464,38.992,38.992,0,0,1-8.473.77q-5.394,0-11.631-.154t-12.324-.462q-6.089-.306-11.323-0.77V165.93q4,1.08,8.319,1.848t9.012,1.386q4.7,0.614,9.551.924t9.936,0.308A82.362,82.362,0,0,0,819.033,167.7ZM901.3,169.78a104.991,104.991,0,0,0,12.093-1.694,54.08,54.08,0,0,0,9.012-2.618V142.214q-4.314.618-11.631,1t-19.025.385a27.434,27.434,0,0,1-9.783-1.463,11.1,11.1,0,0,1-5.777-4.928,25.874,25.874,0,0,1-2.773-9.625,127.32,127.32,0,0,1-.77-15.4,108.767,108.767,0,0,1,1-16.555q1-6.237,3.158-9.471a10.306,10.306,0,0,1,5.777-4.312,31.455,31.455,0,0,1,8.858-1.078q6.933,0,12.864.385t10.552,1q4.623,0.617,7.549,1.232V60.132a56.483,56.483,0,0,0-8.242-2.772,102.856,102.856,0,0,0-12.478-2.387,125.955,125.955,0,0,0-16.869-1,57.07,57.07,0,0,0-16.946,2.387,29.424,29.424,0,0,0-13.325,8.624q-5.625,6.237-8.7,17.633t-3.081,29.26q0,18.48,2.927,30.03t8.473,17.71a28.594,28.594,0,0,0,13.248,8.47,60.569,60.569,0,0,0,17.408,2.31Q894.362,170.4,901.3,169.78Zm97.129-1.771a32.946,32.946,0,0,0,15.326-8.547q6.165-6.157,9.25-17.633t3.08-29.645q0-18.169-3.08-29.645t-9.25-17.633a33,33,0,0,0-15.326-8.547,96.549,96.549,0,0,0-42.672,0,32.963,32.963,0,0,0-15.329,8.547q-6.162,6.161-9.243,17.633T928.1,112.184q0,18.174,3.081,29.645t9.243,17.633a32.912,32.912,0,0,0,15.329,8.547A96.549,96.549,0,0,0,998.424,168.009Zm-30.81-25.795a11.192,11.192,0,0,1-5.854-4.774,24.916,24.916,0,0,1-2.927-9.548,118.825,118.825,0,0,1-.848-15.708,123.355,123.355,0,0,1,.848-16.17,24.232,24.232,0,0,1,2.927-9.471A10.577,10.577,0,0,1,967.614,82a37.339,37.339,0,0,1,19.025,0,10.59,10.59,0,0,1,5.777,4.543,24.282,24.282,0,0,1,2.927,9.471,123.912,123.912,0,0,1,.847,16.17,119.368,119.368,0,0,1-.847,15.708,24.968,24.968,0,0,1-2.927,9.548,11.224,11.224,0,0,1-5.777,4.774A33.336,33.336,0,0,1,967.614,142.214ZM1046.7,73.041a10.629,10.629,0,0,0,1.81-.578,11.807,11.807,0,0,0,1.37-.677,3.37,3.37,0,0,0,.8-0.594l0.79,1.881h3.86V61.029a6.67,6.67,0,0,0-.81-3.564,4.328,4.328,0,0,0-2.38-1.815,11.879,11.879,0,0,0-3.78-.528,24.424,24.424,0,0,0-4.11.3,24.806,24.806,0,0,0-2.98.693V58.95h5.31a9.047,9.047,0,0,1,2.46.248,1.783,1.783,0,0,1,1.11.792,2.816,2.816,0,0,1,.29,1.369V62.58h-4.52a6.367,6.367,0,0,0-4.42,1.3,4.294,4.294,0,0,0-1.42,3.316v1.584a4.347,4.347,0,0,0,1.25,3.3,4.573,4.573,0,0,0,3.27,1.188A9.365,9.365,0,0,0,1046.7,73.041Zm-0.7-3.35a1.544,1.544,0,0,1-.76-0.611,2.01,2.01,0,0,1-.28-1.089V67.266a1.985,1.985,0,0,1,.61-1.518,3.116,3.116,0,0,1,1.9-.66l2.97-.2v4.125a3.232,3.232,0,0,1-.31.132,6.631,6.631,0,0,1-.63.215c-0.25.077-.52,0.154-0.82,0.231s-0.59.143-.86,0.2a3.825,3.825,0,0,1-.74.082A3.031,3.031,0,0,1,1046,69.692Zm-1.02,25.823V83.205a7.411,7.411,0,0,1,1.11-.693,5.712,5.712,0,0,1,1.22-.462,5.335,5.335,0,0,1,1.33-.165,2.9,2.9,0,0,1,1.36.3,2.14,2.14,0,0,1,.87.858,2.872,2.872,0,0,1,.32,1.419V95.514h4.88V83.832a10,10,0,0,0-.48-3.184,4.521,4.521,0,0,0-1.66-2.294,5.716,5.716,0,0,0-3.37-.858,7.764,7.764,0,0,0-3.09.643,10.087,10.087,0,0,0-2.49,1.469l-0.86-1.815h-4.03V95.514h4.89Zm1.72,22.407a10.576,10.576,0,0,0,1.81-.577,11.834,11.834,0,0,0,1.37-.677,3.338,3.338,0,0,0,.8-0.594l0.79,1.881h3.86V105.909a6.67,6.67,0,0,0-.81-3.564,4.327,4.327,0,0,0-2.38-1.815,11.9,11.9,0,0,0-3.78-.528,24.424,24.424,0,0,0-4.11.3,24.806,24.806,0,0,0-2.98.693v2.838h5.31a9.043,9.043,0,0,1,2.46.248,1.783,1.783,0,0,1,1.11.792,2.816,2.816,0,0,1,.29,1.369v1.221h-4.52a6.366,6.366,0,0,0-4.42,1.3,4.293,4.293,0,0,0-1.42,3.316v1.584a4.347,4.347,0,0,0,1.25,3.3,4.573,4.573,0,0,0,3.27,1.188A9.348,9.348,0,0,0,1046.7,117.921Zm-0.7-3.349a1.548,1.548,0,0,1-.76-0.611,2.007,2.007,0,0,1-.28-1.089v-0.726a1.986,1.986,0,0,1,.61-1.518,3.114,3.114,0,0,1,1.9-.66l2.97-.2V113.9a3.288,3.288,0,0,1-.31.132q-0.24.1-.63,0.215c-0.25.077-.52,0.154-0.82,0.231s-0.59.143-.86,0.2a3.837,3.837,0,0,1-.74.082A3.035,3.035,0,0,1,1046,114.572Zm4.13,33.643,1.58-3.267,5.29-22.275h-4.96l-3.2,13.728a2.121,2.121,0,0,1-.38-0.049,2.283,2.283,0,0,1-.54-0.2,1.533,1.533,0,0,1-.56-0.512,2.874,2.874,0,0,1-.43-0.99l-2.81-11.979h-5.08l3.33,12.969a7.913,7.913,0,0,0,1.14,2.591,5.062,5.062,0,0,0,1.87,1.6,5.691,5.691,0,0,0,2.6.561l-1.91,7.821h4.06Zm-3.43,22.506a10.576,10.576,0,0,0,1.81-.577,11.834,11.834,0,0,0,1.37-.677,3.338,3.338,0,0,0,.8-0.594l0.79,1.881h3.86V158.709a6.67,6.67,0,0,0-.81-3.564,4.327,4.327,0,0,0-2.38-1.815,11.9,11.9,0,0,0-3.78-.528,24.424,24.424,0,0,0-4.11.3,24.806,24.806,0,0,0-2.98.693v2.838h5.31a9.043,9.043,0,0,1,2.46.248,1.783,1.783,0,0,1,1.11.792,2.816,2.816,0,0,1,.29,1.369v1.221h-4.52a6.366,6.366,0,0,0-4.42,1.3,4.293,4.293,0,0,0-1.42,3.316v1.584a4.347,4.347,0,0,0,1.25,3.3,4.573,4.573,0,0,0,3.27,1.188A9.348,9.348,0,0,0,1046.7,170.721Zm-0.7-3.349a1.548,1.548,0,0,1-.76-0.611,2.007,2.007,0,0,1-.28-1.089v-0.726a1.986,1.986,0,0,1,.61-1.518,3.114,3.114,0,0,1,1.9-.66l2.97-.2V166.7a3.288,3.288,0,0,1-.31.132q-0.24.1-.63,0.215c-0.25.077-.52,0.154-0.82,0.231s-0.59.143-.86,0.2a3.837,3.837,0,0,1-.74.082A3.035,3.035,0,0,1,1046,167.372Z" transform="translate(-236.094 -51.5)"/>
</svg>
