<svg xmlns="http://www.w3.org/2000/svg" width="446.25" height="37.031" viewBox="0 0 446.25 37.031">
  <metadata><?xpacket begin="﻿" id="W5M0MpCehiHzreSzNTczkc9d"?>
<x:xmpmeta xmlns:x="adobe:ns:meta/" x:xmptk="Adobe XMP Core 5.6-c138 79.159824, 2016/09/14-01:09:01        ">
   <rdf:RDF xmlns:rdf="http://www.w3.org/1999/02/22-rdf-syntax-ns#">
      <rdf:Description rdf:about=""/>
   </rdf:RDF>
</x:xmpmeta>
                                                                                                    
                                                                                                    
                                                                                                    
                                                                                                    
                                                                                                    
                                                                                                    
                                                                                                    
                                                                                                    
                                                                                                    
                                                                                                    
                                                                                                    
                                                                                                    
                                                                                                    
                                                                                                    
                                                                                                    
                                                                                                    
                                                                                                    
                                                                                                    
                                                                                                    
                                                                                                    
                           
<?xpacket end="w"?></metadata>
<defs>
    <style>
      .cls-1 {
        fill: #fa7d81;
        fill-rule: evenodd;
      }
    </style>
  </defs>
  <path id="FRANCiSCO_J_ANAYA_copy" data-name="FRANCiSCO J ANAYA copy" class="cls-1" d="M322,143.443V130.771l13.055-.48V122.9L322,122.419v-4.032a2.036,2.036,0,0,1,2.281-2.016h13.2v-7.824q-2.815-.384-5.945-0.552t-5.8-.192q-2.67-.024-4.174-0.024a12.606,12.606,0,0,0-3.106.408,8.163,8.163,0,0,0-2.912,1.392,7.169,7.169,0,0,0-2.136,2.712,10.007,10.007,0,0,0-.825,4.32v26.832H322Zm27.565,0V131.155h3.592l5.047,12.288h9.561l-6.261-13.824a12.1,12.1,0,0,0,1.917-1.344,7.269,7.269,0,0,0,1.553-1.9,10.2,10.2,0,0,0,1.044-2.76,16.784,16.784,0,0,0,.388-3.84,17.925,17.925,0,0,0-.8-5.808,8.966,8.966,0,0,0-2.257-3.672,8.332,8.332,0,0,0-3.446-1.944,15.669,15.669,0,0,0-4.367-.576H340.153v35.664h9.415Zm0-27.312h4.271a4.378,4.378,0,0,1,1.359.192,2.522,2.522,0,0,1,1,.6,2.448,2.448,0,0,1,.606,1.128,6.95,6.95,0,0,1,.2,1.776,7.235,7.235,0,0,1-.2,1.8,3.007,3.007,0,0,1-.606,1.224,2.391,2.391,0,0,1-1,.7,3.9,3.9,0,0,1-1.359.216h-4.271v-7.632ZM378.2,143.443l1.407-5.664h10.823l1.456,5.664h9.755l-10.677-35.664H379.221l-10.677,35.664H378.2ZM385,115.7l3.251,13.728h-6.455Zm27.759,27.744V123.571l12.667,19.872H432.9V107.779h-9.415v19.872l-12.667-19.872h-7.474v35.664h9.415Zm41.786,0.1a33.382,33.382,0,0,0,3.81-.528,17.161,17.161,0,0,0,2.839-.816v-7.248q-1.359.192-3.664,0.312t-5.994.12a8.718,8.718,0,0,1-3.082-.456,3.49,3.49,0,0,1-1.82-1.536,8.009,8.009,0,0,1-.873-3,39.3,39.3,0,0,1-.243-4.8,33.508,33.508,0,0,1,.316-5.16,7.482,7.482,0,0,1,1-2.952,3.24,3.24,0,0,1,1.819-1.344,10.033,10.033,0,0,1,2.791-.336q2.184,0,4.052.12t3.325,0.312q1.457,0.192,2.378.384v-7.248a17.958,17.958,0,0,0-2.6-.864,32.838,32.838,0,0,0-3.932-.744,40.049,40.049,0,0,0-5.314-.312,18.144,18.144,0,0,0-5.338.744,9.276,9.276,0,0,0-4.2,2.688,13.2,13.2,0,0,0-2.742,5.5,35.417,35.417,0,0,0-.971,9.12,38.824,38.824,0,0,0,.922,9.36,12.821,12.821,0,0,0,2.669,5.52,9.026,9.026,0,0,0,4.174,2.64,19.275,19.275,0,0,0,5.484.72Q452.358,143.731,454.542,143.539Zm18.733-29.232a0.96,0.96,0,0,0,1.068-1.1v-5.328a1.352,1.352,0,0,0-.267-0.864,0.964,0.964,0,0,0-.8-0.336H465.9a1.046,1.046,0,0,0-1.165,1.2V113.2a1,1,0,0,0,1.165,1.1h7.377Zm0.971,29.136V117.571H464.83v25.872h9.416Zm21.985-.552a7.853,7.853,0,0,0,4.562-3.24q1.6-2.4,1.6-6.96v-1.584a10.594,10.594,0,0,0-1.14-4.968,8.362,8.362,0,0,0-3.4-3.456,11.4,11.4,0,0,0-5.654-1.272H489a3.76,3.76,0,0,1-2.378-.624,2.2,2.2,0,0,1-.776-1.824v-0.48a2.262,2.262,0,0,1,.582-1.68,3.046,3.046,0,0,1,1.65-.768,13.9,13.9,0,0,1,2.427-.192q2.28,0,5.071.12t5.023,0.312v-7.392q-1.407-.335-3.178-0.648t-3.786-.528a40.362,40.362,0,0,0-4.3-.216q-6.018,0-9.221,2.616t-3.2,7.9v1.584q0,5.76,2.912,8.208t8.541,2.448h2.573a3.005,3.005,0,0,1,1.771.528,1.811,1.811,0,0,1,.752,1.584v0.576a1.933,1.933,0,0,1-.534,1.44,3.239,3.239,0,0,1-1.6.768,12.382,12.382,0,0,1-2.669.24q-1.7,0-3.665-.048t-3.882-.144q-1.918-.1-3.567-0.24v7.392q1.262,0.336,2.62.576t2.84,0.432q1.479,0.192,3.009.288t3.13,0.1A26.193,26.193,0,0,0,496.231,142.891Zm25.915,0.648a33.414,33.414,0,0,0,3.81-.528,17.189,17.189,0,0,0,2.839-.816v-7.248q-1.359.192-3.664,0.312t-5.994.12a8.718,8.718,0,0,1-3.082-.456,3.49,3.49,0,0,1-1.82-1.536,7.991,7.991,0,0,1-.873-3,39.1,39.1,0,0,1-.243-4.8,33.655,33.655,0,0,1,.315-5.16,7.5,7.5,0,0,1,1-2.952,3.245,3.245,0,0,1,1.82-1.344,10.033,10.033,0,0,1,2.791-.336q2.184,0,4.052.12t3.325,0.312q1.455,0.192,2.378.384v-7.248a17.935,17.935,0,0,0-2.6-.864,32.779,32.779,0,0,0-3.931-.744,40.049,40.049,0,0,0-5.314-.312,18.155,18.155,0,0,0-5.339.744,9.286,9.286,0,0,0-4.2,2.688,13.228,13.228,0,0,0-2.742,5.5,35.466,35.466,0,0,0-.97,9.12,38.824,38.824,0,0,0,.922,9.36,12.81,12.81,0,0,0,2.669,5.52,9.026,9.026,0,0,0,4.174,2.64,19.27,19.27,0,0,0,5.484.72Q519.962,143.731,522.146,143.539Zm30.6-.552a10.408,10.408,0,0,0,4.829-2.664,11.979,11.979,0,0,0,2.912-5.5,36.205,36.205,0,0,0,.971-9.24,36.216,36.216,0,0,0-.971-9.24,11.989,11.989,0,0,0-2.912-5.5,10.426,10.426,0,0,0-4.829-2.664,30.734,30.734,0,0,0-13.443,0,10.421,10.421,0,0,0-4.829,2.664,11.971,11.971,0,0,0-2.912,5.5,36.171,36.171,0,0,0-.971,9.24,36.16,36.16,0,0,0,.971,9.24,11.96,11.96,0,0,0,2.912,5.5,10.4,10.4,0,0,0,4.829,2.664A30.734,30.734,0,0,0,552.745,142.987Zm-9.706-8.04a3.518,3.518,0,0,1-1.844-1.488,7.716,7.716,0,0,1-.923-2.976,36.716,36.716,0,0,1-.266-4.9,38.12,38.12,0,0,1,.266-5.04,7.511,7.511,0,0,1,.923-2.952,3.326,3.326,0,0,1,1.844-1.416,11.883,11.883,0,0,1,5.993,0,3.328,3.328,0,0,1,1.82,1.416,7.527,7.527,0,0,1,.923,2.952,38.294,38.294,0,0,1,.266,5.04,36.886,36.886,0,0,1-.266,4.9,7.733,7.733,0,0,1-.923,2.976,3.526,3.526,0,0,1-1.82,1.488A10.608,10.608,0,0,1,543.039,134.947Zm43.217,7.656a6.809,6.809,0,0,0,3.228-3.288,12.466,12.466,0,0,0,1-5.232v-26.3h-9.416v24.864a3.334,3.334,0,0,1-.291,1.464,2.039,2.039,0,0,1-.946.936,3.789,3.789,0,0,1-1.723.336h-3.931v7.488a22.942,22.942,0,0,0,6.163.864A13.2,13.2,0,0,0,586.256,142.6Zm26.5,0.84,1.408-5.664h10.822l1.456,5.664H636.2l-10.677-35.664H613.774L603.1,143.443h9.658Zm6.795-27.744,3.252,13.728h-6.455Zm27.76,27.744V123.571l12.666,19.872h7.474V107.779h-9.415v19.872l-12.667-19.872h-7.474v35.664h9.416Zm31.5,0,1.407-5.664h10.823l1.456,5.664h9.755L691.57,107.779H679.825l-10.677,35.664h9.658ZM685.6,115.7l3.252,13.728H682.4Zm33.1,27.744V133.315l10.434-25.536h-9.367l-5.581,16.032L708.6,107.779h-9.755l10.434,25.536v10.128H718.7Zm16.7,0,1.407-5.664h10.823l1.456,5.664h9.755l-10.678-35.664H736.413l-10.677,35.664h9.658Zm6.794-27.744,3.252,13.728h-6.455Z" transform="translate(-312.594 -106.688)"/>
</svg>
