<svg id="Group_1_copy" data-name="Group 1 copy" xmlns="http://www.w3.org/2000/svg" width="53.09" height="14.688" viewBox="0 0 53.09 14.688">
  <metadata><?xpacket begin="﻿" id="W5M0MpCehiHzreSzNTczkc9d"?>
<x:xmpmeta xmlns:x="adobe:ns:meta/" x:xmptk="Adobe XMP Core 5.6-c138 79.159824, 2016/09/14-01:09:01        ">
   <rdf:RDF xmlns:rdf="http://www.w3.org/1999/02/22-rdf-syntax-ns#">
      <rdf:Description rdf:about=""/>
   </rdf:RDF>
</x:xmpmeta>
                                                                                                    
                                                                                                    
                                                                                                    
                                                                                                    
                                                                                                    
                                                                                                    
                                                                                                    
                                                                                                    
                                                                                                    
                                                                                                    
                                                                                                    
                                                                                                    
                                                                                                    
                                                                                                    
                                                                                                    
                                                                                                    
                                                                                                    
                                                                                                    
                                                                                                    
                                                                                                    
                           
<?xpacket end="w"?></metadata>
<defs>
    <style>
      .cls-1 {
        fill: #161616;
        fill-rule: evenodd;
      }
    </style>
  </defs>
  <path id="Work" class="cls-1" d="M1012.86,30.222q2.43-4.447,4.25-8.174c0-.105-0.23-0.158-0.68-0.158a4.918,4.918,0,0,0-.7.048,0.781,0.781,0,0,0-.39.11c-0.25.527-1.32,2.578-3.19,6.152a62.034,62.034,0,0,1-3.33,5.994,0.864,0.864,0,0,1-.02-0.237,12.948,12.948,0,0,1,.26-2.338c0.41-1.928.74-3.27,0.97-4.025a4.537,4.537,0,0,0,.26-1.1,0.232,0.232,0,0,0-.29-0.22,3.245,3.245,0,0,0-.37.026q-0.33.035-.87,0.053-0.6.158-3.67,4.06l-2.04,2.61a27.54,27.54,0,0,1,2.21-5.212c0.41-.791.66-1.248,0.74-1.371,0.4-.521.63-0.847,0.72-0.976a1.013,1.013,0,0,0,.02-0.237,1.519,1.519,0,0,0-.01-0.273,1.152,1.152,0,0,0-.61-0.079,1.671,1.671,0,0,0-1.2.2,8.317,8.317,0,0,1-.5.993q-0.855,1.494-1.92,3.806a13.17,13.17,0,0,0-1.49,4.421,0.884,0.884,0,0,0,.12.5l0.14,0.211a5.272,5.272,0,0,1,.56.94,0.272,0.272,0,0,0,.27.2,0.7,0.7,0,0,0,.42-0.2q0.465-.439,2.76-3.428a31.36,31.36,0,0,1,2.52-3.1,25.383,25.383,0,0,0-.78,4.553,2.259,2.259,0,0,0,.12.844,2.61,2.61,0,0,0,.32.541,3.886,3.886,0,0,1,.43.716,0.858,0.858,0,0,0,.48.475h0.29q1.035-.545,4.2-6.328h0ZM1014.93,33a8.587,8.587,0,0,1,1.03-2.795,7.015,7.015,0,0,1,.57-1.02,0.359,0.359,0,0,1,.24-0.193L1016.83,29a0.073,0.073,0,0,0,.05-0.053,0.212,0.212,0,0,0-.03-0.083,0.183,0.183,0,0,1-.04-0.119,0.726,0.726,0,0,1,.19-0.316,0.383,0.383,0,0,1,.17-0.167,3.981,3.981,0,0,1,.47-0.114,1.652,1.652,0,0,0,.41-0.132,0.2,0.2,0,0,0,.04-0.132,0.387,0.387,0,0,0-.19-0.343,0.192,0.192,0,0,1-.12-0.132,0.732,0.732,0,0,1,.31-0.36l0.03-.009a0.272,0.272,0,0,1,.15.22,3.052,3.052,0,0,1,.13.492,1.96,1.96,0,0,1,.05.422v0.1a11.925,11.925,0,0,1-1.07,2.369,12.444,12.444,0,0,1-1.32,1.885,1.876,1.876,0,0,1-.96.747c-0.11,0-.17-0.091-0.17-0.273h0Zm0.98,1.7a6.021,6.021,0,0,0,1.46-1.064,8.172,8.172,0,0,0,1.34-1.67,9.169,9.169,0,0,0,.99-2.184,8.718,8.718,0,0,0,.38-2.6,1.475,1.475,0,0,0-.5-0.791,12.557,12.557,0,0,0-1.17-.888,0.884,0.884,0,0,0-.53-0.176,1.793,1.793,0,0,0-1.18.593,7.98,7.98,0,0,0-1.23,1.538,15.961,15.961,0,0,0-1.08,2.052,14.571,14.571,0,0,0-.78,2.171,6.967,6.967,0,0,0-.3,1.855,1.415,1.415,0,0,0,.63,1.38,1.332,1.332,0,0,0,.65.15A3,3,0,0,0,1015.91,34.7Zm6.8-5.493a5.273,5.273,0,0,1,.64-1.134,0.373,0.373,0,0,1,.22-0.185,9.315,9.315,0,0,1,1.48-.211,0.046,0.046,0,0,1,.04.018,12.5,12.5,0,0,1-1.74,1.151l-0.63.4Zm-2.17,5.23a1.882,1.882,0,0,0,.22-0.554q0.375-1.055.42-1.134a0.374,0.374,0,0,1,.29-0.079q0.285,0,.9.062c0.52,0.047,1.34.108,2.47,0.184a2.66,2.66,0,0,1,.99.158,0.573,0.573,0,0,1,.18.141,0.289,0.289,0,0,0,.2.123,0.208,0.208,0,0,0,.15-0.057,0.232,0.232,0,0,0,.09-0.11,4.07,4.07,0,0,0,.22-1.107,0.744,0.744,0,0,0-.31-0.7,2.1,2.1,0,0,0-.89-0.242q-0.57-.053-1.44-0.062l-1.19-.035a0.8,0.8,0,0,1,.2-0.141,1.007,1.007,0,0,0,.17-0.1c0.92-.521,1.63-0.942,2.14-1.261a6.019,6.019,0,0,0,1.15-.888,1.653,1.653,0,0,0,.47-0.813,4.111,4.111,0,0,0,.08-0.888c0-.176,0-0.366-0.01-0.571q-0.06-.5-1.23-0.5a10.817,10.817,0,0,0-2.39.325,12.5,12.5,0,0,0-1.86.567,1.127,1.127,0,0,0-.77.514,0.094,0.094,0,0,0,.02.062c0.12,0.117.19,0.188,0.22,0.211a4.171,4.171,0,0,1,.63.624,0.2,0.2,0,0,1-.05.105c-0.09.147-.37,0.7-0.85,1.67-0.15.311-.24,0.5-0.28,0.558a0.193,0.193,0,0,1-.14.11,2.039,2.039,0,0,0-.69.457,0.245,0.245,0,0,0-.09.167,0.794,0.794,0,0,0,.34.4,0.3,0.3,0,0,1,.09.123,0.872,0.872,0,0,1-.09.272c-0.07.164-.3,0.8-0.7,1.907a3.43,3.43,0,0,0,.25.945,1.691,1.691,0,0,0,.34.7,4.415,4.415,0,0,0,.75-1.151h0Zm6.93,0.123a5.245,5.245,0,0,1,.2-0.734,1.051,1.051,0,0,1,.31-0.584c1.69,0.44,2.66.706,2.92,0.8a0.63,0.63,0,0,1,.28.189,0.7,0.7,0,0,1,.07.233c0.02,0.17.06,0.255,0.13,0.255a1.368,1.368,0,0,0,.68-0.527,3.026,3.026,0,0,1,.28-0.246c0.13-.094.22-0.164,0.28-0.211a0.218,0.218,0,0,0,.08-0.158,0.543,0.543,0,0,0-.36-0.325c-0.83-.41-1.36-0.668-1.62-0.773-0.33-.135-1.02-0.352-2.06-0.65-0.09-.012-0.13-0.035-0.13-0.07a6.526,6.526,0,0,1,.49-0.941,21.12,21.12,0,0,1,3.21-1.863l3.64-1.969c0.13-.076.23-0.135,0.31-0.176a0.9,0.9,0,0,0,.18-0.114,0.2,0.2,0,0,0,.06-0.158,2.613,2.613,0,0,0-.14-0.607c-0.06-.2-0.13-0.463-0.22-0.791a0.046,0.046,0,0,0-.04-0.018,41.527,41.527,0,0,0-4.04,2.136c-0.74.4-1.13,0.609-1.18,0.615,0.07-.117.13-0.231,0.2-0.343a8.327,8.327,0,0,0,.92-1.828,6.3,6.3,0,0,0,.15-1.028c0-.117-0.03-0.176-0.1-0.176a0.778,0.778,0,0,0-.34.141,4.135,4.135,0,0,1-.79.334,15.616,15.616,0,0,0-1.94,3.05l-0.82,1.406a1.882,1.882,0,0,1-.62.457,7.271,7.271,0,0,0-1.74,1.31,0.1,0.1,0,0,1-.07.026,0.382,0.382,0,0,1-.14-0.031,0.338,0.338,0,0,0-.13-0.031c-0.04,0-.05.026-0.05,0.079a1,1,0,0,0,.02.141l0.01,0.062a0.22,0.22,0,0,1-.02.088c-0.02.023-.04,0.041-0.05,0.053a0.065,0.065,0,0,1-.03.022,0.011,0.011,0,0,0-.01.013,0.089,0.089,0,0,0,.08.075,0.138,0.138,0,0,1,.09.1c0.14,0.75.29,1.125,0.46,1.125a0.259,0.259,0,0,0,.1-0.017,0.246,0.246,0,0,1,.09-0.018,0.563,0.563,0,0,1,.45.141c-0.19.551-.28,0.844-0.28,0.879a1.3,1.3,0,0,0,.37.457,5.282,5.282,0,0,0,.7.65,0.514,0.514,0,0,0,.16-0.448h0Z" transform="translate(-1001 -21.875)"/>
  <path id="_" data-name="&gt;&gt;" class="cls-1" d="M1042.52,34.317l0.15-.1q0.135-.1.15-0.11a0.093,0.093,0,0,0,.02-0.017,0.023,0.023,0,0,0,.02-0.018,0.274,0.274,0,0,1,.04-0.022V34.045h0.02V34.036a0.046,0.046,0,0,0,.03-0.013,0.229,0.229,0,0,1,.04-0.031,0.388,0.388,0,0,0,.06-0.044,0.226,0.226,0,0,1,.07-0.044,0.21,0.21,0,0,0,.05-0.035,0.14,0.14,0,0,0,.04-0.035,0.159,0.159,0,0,1,.04-0.026,0.035,0.035,0,0,0,.02-0.018,0.253,0.253,0,0,1,.05-0.026,0.212,0.212,0,0,0,.05-0.035q2.13-1.477,3.87-2.751a5.414,5.414,0,0,0,.88-0.721c0-.017.01-0.032,0.01-0.044a9.272,9.272,0,0,0,.15-1.3,0.42,0.42,0,0,0-.14-0.4,1.882,1.882,0,0,0-.6-0.061,7.316,7.316,0,0,1-1.29-.158,9.658,9.658,0,0,1-2.38-.923,1.472,1.472,0,0,1-.41-0.308,0.245,0.245,0,0,0-.17-0.123,4.648,4.648,0,0,0-1.09.589c-0.1.07-.22,0.144-0.35,0.22a0.074,0.074,0,0,0-.04.07,0.569,0.569,0,0,0,.33.334q0.345,0.2.69,0.387,0.315,0.158.45,0.246a6.607,6.607,0,0,0,2.89,1.125l0.18,0.035c-0.54.352-1.08,0.712-1.61,1.081q-3.555,2.549-3.62,2.61a0.389,0.389,0,0,0,.24.149,6.194,6.194,0,0,1,1,.563,0.071,0.071,0,0,0,.05.026,0.183,0.183,0,0,0,.11-0.053h0Zm5.81,0s0.05-.032.14-0.1,0.15-.1.16-0.11a0.055,0.055,0,0,1,.02-0.017,0.054,0.054,0,0,0,.02-0.018,0.094,0.094,0,0,1,.04-0.022V34.045h0.02V34.036a0.082,0.082,0,0,0,.03-0.013,0.229,0.229,0,0,1,.04-0.031,0.388,0.388,0,0,0,.06-0.044,0.4,0.4,0,0,1,.06-0.044,0.153,0.153,0,0,0,.06-0.035c0.01-.012.03-0.023,0.04-0.035a0.122,0.122,0,0,1,.03-0.026,0.037,0.037,0,0,0,.03-0.018,0.253,0.253,0,0,1,.05-0.026,0.212,0.212,0,0,0,.05-0.035q2.13-1.477,3.87-2.751a5.414,5.414,0,0,0,.88-0.721c0-.017.01-0.032,0.01-0.044a9.272,9.272,0,0,0,.15-1.3,0.42,0.42,0,0,0-.14-0.4,1.914,1.914,0,0,0-.61-0.061,7.331,7.331,0,0,1-1.28-.158,9.658,9.658,0,0,1-2.38-.923,1.472,1.472,0,0,1-.41-0.308,0.245,0.245,0,0,0-.17-0.123,4.648,4.648,0,0,0-1.09.589c-0.11.07-.22,0.144-0.35,0.22a0.085,0.085,0,0,0-.05.07,0.6,0.6,0,0,0,.34.334q0.345,0.2.69,0.387,0.315,0.158.45,0.246a6.561,6.561,0,0,0,2.89,1.125l0.18,0.035c-0.54.352-1.08,0.712-1.61,1.081q-3.555,2.549-3.62,2.61a0.389,0.389,0,0,0,.24.149,6.651,6.651,0,0,1,1,.563,0.057,0.057,0,0,0,.05.026,0.211,0.211,0,0,0,.11-0.053h0Z" transform="translate(-1001 -21.875)"/>
</svg>
