<svg xmlns="http://www.w3.org/2000/svg" xmlns:xlink="http://www.w3.org/1999/xlink" width="50.282" height="16" viewBox="0 0 50.282 16">
  <metadata><?xpacket begin="﻿" id="W5M0MpCehiHzreSzNTczkc9d"?>
<x:xmpmeta xmlns:x="adobe:ns:meta/" x:xmptk="Adobe XMP Core 5.6-c138 79.159824, 2016/09/14-01:09:01        ">
   <rdf:RDF xmlns:rdf="http://www.w3.org/1999/02/22-rdf-syntax-ns#">
      <rdf:Description rdf:about=""/>
   </rdf:RDF>
</x:xmpmeta>
                                                                                                    
                                                                                                    
                                                                                                    
                                                                                                    
                                                                                                    
                                                                                                    
                                                                                                    
                                                                                                    
                                                                                                    
                                                                                                    
                                                                                                    
                                                                                                    
                                                                                                    
                                                                                                    
                                                                                                    
                                                                                                    
                                                                                                    
                                                                                                    
                                                                                                    
                                                                                                    
                           
<?xpacket end="w"?></metadata>
<defs>
    <style>
      .cls-1 {
        filter: url(#filter);
      }

      .cls-2 {
        fill: #161616;
        fill-rule: evenodd;
      }
    </style>
    <filter id="filter" filterUnits="userSpaceOnUse">
      <feFlood result="flood" flood-color="#161616"/>
      <feComposite result="composite" operator="in" in2="SourceGraphic"/>
      <feBlend result="blend" in2="SourceGraphic"/>
    </filter>
  </defs>
  <g id="Home_copy" data-name="Home copy" class="cls-1">
    <path id="Home" class="cls-2" d="M900.515,37.545q0.413-.475.712-0.756a1.2,1.2,0,0,0,.4-0.5,0.366,0.366,0,0,0-.3-0.193,0.454,0.454,0,0,1-.163-0.07,0.214,0.214,0,0,1-.057-0.176,4.82,4.82,0,0,1,.2-0.984,34.7,34.7,0,0,1,3.033-7.857q0.834-1.573,1.476-2.672a7.406,7.406,0,0,0,.958-1.916,0.11,0.11,0,0,0-.061-0.114,11.162,11.162,0,0,0-1.3-.519,0.115,0.115,0,0,0-.079.062,17.407,17.407,0,0,0-1.283,2.188,34.721,34.721,0,0,0-2.039,4.157,2.743,2.743,0,0,1-.255.545,0.5,0.5,0,0,1-.431.149c-0.105,0-.237-0.006-0.395-0.018a8.535,8.535,0,0,0-1-.044q-0.6,0-1.442.035a14.429,14.429,0,0,1,.87-1.819,4.836,4.836,0,0,1,1.125-1.767h0.088a0.086,0.086,0,0,0,.088-0.079,7.867,7.867,0,0,1,.747-1.459,1.116,1.116,0,0,0,.211-0.475,0.7,0.7,0,0,0-.149-0.382q-0.15-.215-0.633-0.8a0.979,0.979,0,0,0-.211-0.22q-0.317.018-1.951,3.067-1.239,2.312-1.864,3.788a1.515,1.515,0,0,1-.294.549,0.942,0.942,0,0,1-.215.066,5.464,5.464,0,0,0-1.371.536,0.142,0.142,0,0,0-.115.123,3.052,3.052,0,0,0,.2.607l0.307,0.826a0.092,0.092,0,0,0,.088.07,0.272,0.272,0,0,0,.092-0.022,0.585,0.585,0,0,1,.145-0.031l0.009,0.026a0.041,0.041,0,0,1-.013.031,0.035,0.035,0,0,0-.013.022,7.178,7.178,0,0,0-.528,1.881,0.341,0.341,0,0,0,.233.4,2.618,2.618,0,0,0,.488.044q0.852-.035,1.134-0.035a0.469,0.469,0,0,0,.369-0.273,0.282,0.282,0,0,0,.035-0.141A1.32,1.32,0,0,0,897,32.772a0.225,0.225,0,0,1-.053-0.132,3.783,3.783,0,0,1,.255-0.826l0.422-1.063a2.7,2.7,0,0,1,1.2-.3,11.739,11.739,0,0,1,1.494-.106,0.729,0.729,0,0,1,.695.158l-0.159.439a15.179,15.179,0,0,0-1.274,4.79,2.536,2.536,0,0,0,.053.545q0.289,1.494.571,1.494a0.483,0.483,0,0,0,.308-0.229h0ZM905.529,32a8.666,8.666,0,0,1,1.028-2.795,7.745,7.745,0,0,1,.571-1.02,0.376,0.376,0,0,1,.238-0.193L907.427,28a0.075,0.075,0,0,0,.053-0.053,0.2,0.2,0,0,0-.035-0.083,0.218,0.218,0,0,1-.035-0.119,0.768,0.768,0,0,1,.184-0.316,0.37,0.37,0,0,1,.176-0.167,3.743,3.743,0,0,1,.466-0.114,1.743,1.743,0,0,0,.413-0.132,0.189,0.189,0,0,0,.035-0.132,0.377,0.377,0,0,0-.185-0.343,0.193,0.193,0,0,1-.123-0.132,0.758,0.758,0,0,1,.317-0.36l0.026-.009a0.283,0.283,0,0,1,.149.22,3.27,3.27,0,0,1,.132.492,2.409,2.409,0,0,1,.053.422,0.407,0.407,0,0,1-.009.1,11.78,11.78,0,0,1-1.063,2.369,12.227,12.227,0,0,1-1.327,1.885,1.878,1.878,0,0,1-.958.747c-0.112,0-.167-0.091-0.167-0.273h0Zm0.98,1.7a6.17,6.17,0,0,0,1.463-1.064,8.556,8.556,0,0,0,1.34-1.67,9.327,9.327,0,0,0,.989-2.184,8.654,8.654,0,0,0,.378-2.6,1.513,1.513,0,0,0-.5-0.791,12.5,12.5,0,0,0-1.169-.888,0.891,0.891,0,0,0-.527-0.176,1.8,1.8,0,0,0-1.182.593,7.938,7.938,0,0,0-1.226,1.538,15.5,15.5,0,0,0-1.086,2.052,15.939,15.939,0,0,0-.782,2.171,7.1,7.1,0,0,0-.3,1.855,1.419,1.419,0,0,0,.624,1.38,1.369,1.369,0,0,0,.651.149A3,3,0,0,0,906.509,33.7Zm8.156,1.986a4.581,4.581,0,0,1,.457-0.809,0.8,0.8,0,0,0,.167-0.316,0.064,0.064,0,0,0-.057-0.066,0.06,0.06,0,0,1-.058-0.057,11.629,11.629,0,0,1,.726-2.254q0.725-1.912,1.564-3.92t1.279-2.914a0.286,0.286,0,0,0,.044-0.123,0.6,0.6,0,0,0-.44-0.141,5.511,5.511,0,0,0-.87-0.123,0.93,0.93,0,0,0-.536.176,4.055,4.055,0,0,0-.664.646q-0.408.47-1.111,1.349L914.2,28.316a0.546,0.546,0,0,1-.009-0.141l0.009-.8a2.616,2.616,0,0,0-.132-0.967,0.267,0.267,0,0,1-.026-0.105,0.129,0.129,0,0,1,.013-0.066,0.393,0.393,0,0,1,.031-0.044,0.079,0.079,0,0,0,.017-0.048,1.141,1.141,0,0,0-.457-0.325,8.79,8.79,0,0,0-.984-0.492,0.062,0.062,0,0,0-.062.04,0.448,0.448,0,0,1-.035.066q-0.237.4-.9,1.7-1.89,3.753-1.89,4.482a7.027,7.027,0,0,0,.211,1.2,0.571,0.571,0,0,0,.105.325,0.5,0.5,0,0,0,.229-0.176,5.1,5.1,0,0,1,.879-0.747,0.082,0.082,0,0,0,.061-0.053,9.991,9.991,0,0,1,.475-1.292,0.008,0.008,0,0,0,.009-0.009c0.035-.088.134-0.314,0.3-0.677a6.64,6.64,0,0,1,.351-0.721c0,0.164-.01.352-0.031,0.563s-0.03.4-.03,0.571a0.98,0.98,0,0,0,.048.338,4.781,4.781,0,0,0,.224.457q0.176,0.33.378,0.633a0.585,0.585,0,0,0,.308.3l0.035-.018,0.123-.176q0.185-.3.523-0.8t0.65-.914a1.651,1.651,0,0,1,.426-0.457q-0.509,1.336-.852,2.206-0.387.976-.576,1.516a2.83,2.83,0,0,0-.189.892,1.176,1.176,0,0,0,.141.563q0.123,0.22.668,1.028a0.1,0.1,0,0,0,.07.044,0.986,0.986,0,0,0,.352-0.527h0Zm6.438-2.408a7.517,7.517,0,0,0,1.239-.809,0.245,0.245,0,0,0,.052-0.149l-0.008-.123a6.477,6.477,0,0,1-.053-0.993q-0.009-.264-0.141-0.264a1.155,1.155,0,0,0-.465.185q-0.457.264-1.776,1.09a0.53,0.53,0,0,1-.255.053q-0.219,0-.237-0.132l0.009-.035a12.738,12.738,0,0,1,.725-1.63,1.607,1.607,0,0,1,.624-0.685,2.091,2.091,0,0,1,.844-0.167q0.522-.013,1.059-0.022l0.158,0.009c0.2-.006.3-0.038,0.3-0.1a0.559,0.559,0,0,0-.141-0.272,3.764,3.764,0,0,1-.457-0.738,1.149,1.149,0,0,0-.171-0.312,0.354,0.354,0,0,0-.286-0.11,3.034,3.034,0,0,0-.334.026,0.115,0.115,0,0,1-.1-0.018c0.03-.053.085-0.138,0.167-0.255a0.553,0.553,0,0,1,.194-0.22,0.366,0.366,0,0,1,.11.044,0.126,0.126,0,0,0,.065.026,0.272,0.272,0,0,0,.088-0.158,1.078,1.078,0,0,0,.071-0.343,0.99,0.99,0,0,0-.031-0.286,0.48,0.48,0,0,1-.031-0.145c0-.1.15-0.155,0.448-0.167q0.633-.035.994-0.07,0.272-.026.465-0.026a0.354,0.354,0,0,1,.185.035,3.334,3.334,0,0,0,1.222.536q0.237,0,.237-0.325a2.986,2.986,0,0,0-.035-0.435,4.386,4.386,0,0,1-.044-0.532c0-.129.006-0.261,0.017-0.4q-0.016-.431-1.617-0.431a16.2,16.2,0,0,0-3.006.334,11.412,11.412,0,0,0-2.751.879,0.1,0.1,0,0,0-.07.088,1.356,1.356,0,0,0,.791.554,4.223,4.223,0,0,0,.879.343,0.051,0.051,0,0,0,.062-0.053q0-.123.237-0.167v0.018a1.49,1.49,0,0,1-.158.246,6.5,6.5,0,0,1-1.046,1.512l-0.422.123a2.338,2.338,0,0,0-.545.624,4.441,4.441,0,0,1-.3.36,0.618,0.618,0,0,0-.193.3c0,0.07.155,0.105,0.466,0.105h0.2l0.009,0.053-0.027.061a4.37,4.37,0,0,0-.633,1.916,0.891,0.891,0,0,0,.286.62,2.953,2.953,0,0,0,.668.492,4.092,4.092,0,0,0,.76.33,2.089,2.089,0,0,0,.563.114,3.661,3.661,0,0,0,1.134-.51h0Z" transform="translate(-894.812 -21.781)"/>
    <path id="_" data-name="&gt;&gt;" class="cls-2" d="M933.518,33.317a1.462,1.462,0,0,0,.149-0.1c0.094-.064.145-0.1,0.154-0.11a0.1,0.1,0,0,1,.022-0.018,0.1,0.1,0,0,0,.022-0.018,0.1,0.1,0,0,1,.039-0.022V33.045h0.018V33.036a0.053,0.053,0,0,0,.026-0.013l0.044-.031a0.51,0.51,0,0,0,.057-0.044,0.354,0.354,0,0,1,.066-0.044,0.274,0.274,0,0,0,.057-0.035,0.443,0.443,0,0,0,.04-0.035,0.139,0.139,0,0,1,.035-0.026,0.078,0.078,0,0,0,.026-0.018,0.235,0.235,0,0,1,.044-0.026,0.2,0.2,0,0,0,.053-0.035q2.136-1.477,3.867-2.751a5.6,5.6,0,0,0,.888-0.721,0.1,0.1,0,0,1,.009-0.044,9.385,9.385,0,0,0,.149-1.3,0.405,0.405,0,0,0-.145-0.4,1.858,1.858,0,0,0-.6-0.061,7.325,7.325,0,0,1-1.283-.158,9.652,9.652,0,0,1-2.382-.923,1.479,1.479,0,0,1-.409-0.308,0.242,0.242,0,0,0-.171-0.123,4.586,4.586,0,0,0-1.09.589c-0.105.07-.223,0.144-0.351,0.22a0.078,0.078,0,0,0-.044.07,0.572,0.572,0,0,0,.338.334q0.339,0.2.69,0.387a4.635,4.635,0,0,1,.448.246,6.564,6.564,0,0,0,2.892,1.125l0.176,0.035q-0.81.527-1.609,1.081-3.559,2.549-3.621,2.61a0.385,0.385,0,0,0,.237.15,6.052,6.052,0,0,1,1,.562,0.078,0.078,0,0,0,.053.026,0.182,0.182,0,0,0,.106-0.053h0Zm5.807,0a1.287,1.287,0,0,0,.15-0.1c0.093-.064.145-0.1,0.154-0.11a0.078,0.078,0,0,1,.022-0.018,0.122,0.122,0,0,0,.022-0.018,0.1,0.1,0,0,1,.039-0.022V33.045h0.018V33.036a0.057,0.057,0,0,0,.026-0.013l0.044-.031a0.51,0.51,0,0,0,.057-0.044,0.354,0.354,0,0,1,.066-0.044,0.3,0.3,0,0,0,.057-0.035,0.443,0.443,0,0,0,.04-0.035,0.123,0.123,0,0,1,.035-0.026,0.09,0.09,0,0,0,.026-0.018,0.235,0.235,0,0,1,.044-0.026,0.2,0.2,0,0,0,.053-0.035q2.136-1.477,3.867-2.751a5.6,5.6,0,0,0,.888-0.721,0.1,0.1,0,0,1,.009-0.044,9.385,9.385,0,0,0,.149-1.3,0.405,0.405,0,0,0-.145-0.4,1.863,1.863,0,0,0-.6-0.061,7.314,7.314,0,0,1-1.283-.158,9.637,9.637,0,0,1-2.382-.923,1.479,1.479,0,0,1-.409-0.308,0.242,0.242,0,0,0-.171-0.123,4.586,4.586,0,0,0-1.09.589c-0.105.07-.223,0.144-0.352,0.22a0.079,0.079,0,0,0-.043.07,0.572,0.572,0,0,0,.338.334q0.338,0.2.69,0.387a4.635,4.635,0,0,1,.448.246,6.559,6.559,0,0,0,2.892,1.125l0.175,0.035q-0.808.527-1.608,1.081-3.559,2.549-3.621,2.61a0.385,0.385,0,0,0,.237.15,6.052,6.052,0,0,1,1,.562,0.076,0.076,0,0,0,.053.026,0.177,0.177,0,0,0,.105-0.053h0Z" transform="translate(-894.812 -21.781)"/>
  </g>
</svg>
