<svg xmlns="http://www.w3.org/2000/svg" xmlns:xlink="http://www.w3.org/1999/xlink" width="175.12" height="16.594" viewBox="0 0 75.12 16.594">
  <metadata><?xpacket begin="﻿" id="W5M0MpCehiHzreSzNTczkc9d"?>
<x:xmpmeta xmlns:x="adobe:ns:meta/" x:xmptk="Adobe XMP Core 5.6-c138 79.159824, 2016/09/14-01:09:01        ">
   <rdf:RDF xmlns:rdf="http://www.w3.org/1999/02/22-rdf-syntax-ns#">
      <rdf:Description rdf:about=""/>
   </rdf:RDF>
</x:xmpmeta>
                                                                                                    
                                                                                                    
                                                                                                    
                                                                                                    
                                                                                                    
                                                                                                    
                                                                                                    
                                                                                                    
                                                                                                    
                                                                                                    
                                                                                                    
                                                                                                    
                                                                                                    
                                                                                                    
                                                                                                    
                                                                                                    
                                                                                                    
                                                                                                    
                                                                                                    
                                                                                                    
                           
<?xpacket end="w"?></metadata>
<defs>
    <style>
      .cls-1 {
        filter: url(#filter);
      }

      .cls-2 {
        fill: #161616;
        fill-rule: evenodd;
      }
    </style>
    <filter id="filter" filterUnits="userSpaceOnUse">
      <feFlood result="flood" flood-color="#161616"/>
      <feComposite result="composite" operator="in" in2="SourceGraphic"/>
      <feBlend result="blend" in2="SourceGraphic"/>
    </filter>
  </defs>
  <g id="About_Me_copy" data-name="About Me copy" class="cls-1">
    <path id="About_Me" data-name="About Me" class="cls-2" d="M1107.75,30.758a28.72,28.72,0,0,1,4.72-6.126l0.01,0.035a0.118,0.118,0,0,1-.03.079c-1.1,2.25-1.78,3.73-2.02,4.439a4.416,4.416,0,0,1-.28.672,0.638,0.638,0,0,1-.3.3,3.182,3.182,0,0,1-.61.189c-0.32.076-.81,0.22-1.48,0.431Zm-2.76,6.267c0.14-.158.42-0.507,0.83-1.046a0.306,0.306,0,0,0,.06-0.1c0-.012-0.02-0.018-0.06-0.018-0.09,0-.13-0.07-0.13-0.211a13,13,0,0,1,.91-2.725,5.5,5.5,0,0,1,1.23-.536,6.776,6.776,0,0,1,1.52-.448c0.04,0,.07.012,0.07,0.035a7.594,7.594,0,0,0-.34,1.767,1.085,1.085,0,0,0,.1.492,2.368,2.368,0,0,0,.27.36,3.77,3.77,0,0,1,.55.8,0.161,0.161,0,0,0,.13.105,0.426,0.426,0,0,0,.27-0.237c0.11-.158.25-0.375,0.41-0.65,0.11-.181.23-0.384,0.37-0.606a0.307,0.307,0,0,0,.06-0.114,0.025,0.025,0,0,0-.03-0.026l-0.11.009a0.214,0.214,0,0,1-.1-0.026,0.18,0.18,0,0,1-.09-0.119,1,1,0,0,1-.03-0.286,7.867,7.867,0,0,1,.3-1.608,0.1,0.1,0,0,1,.08-0.079l0.1,0.009q0.06,0,.06-0.158a9.937,9.937,0,0,1,1-3.16q0.93-2.087,1.65-3.546c0.25-.516.45-0.951,0.62-1.305a2.358,2.358,0,0,0,.24-0.69l-0.01-.035a1.375,1.375,0,0,0,.05-0.281,0.118,0.118,0,0,0-.08-0.128,1.315,1.315,0,0,0-.26-0.031,4.978,4.978,0,0,1-1.11-.193,0.524,0.524,0,0,0-.17-0.026c-1.03,0-3.01,2.168-5.91,6.5q-0.99,1.512-1.86,2.874a0.112,0.112,0,0,1-.02-0.088,0.107,0.107,0,0,0-.12-0.1,6.955,6.955,0,0,0-1.81.835l-0.58.466a0.186,0.186,0,0,0-.09.123,3.929,3.929,0,0,0,1.79.475,0.112,0.112,0,0,1,.03.088,12.042,12.042,0,0,1-.45,1.336,2.383,2.383,0,0,0-.17.773q0.015,0.1.06,0.439c0.08,0.451.14,0.784,0.2,1a0.338,0.338,0,0,0,.23.321A0.583,0.583,0,0,0,1104.99,37.024Zm11.56-9.593q0.15-.453.24-0.659a0.49,0.49,0,0,1,.23-0.259,1.4,1.4,0,0,1,.4-0.07,3.245,3.245,0,0,0,.37-0.026c0.62-.082,1.02-0.123,1.17-0.123,0.11,0,.16.018,0.16,0.053a3.04,3.04,0,0,1-.78.642c-0.51.346-1.24,0.891-2.21,1.635Q1116.4,27.884,1116.55,27.431Zm-2.74,6.007c0.43-.475.66-0.747,0.72-0.817,0.32-1.16.6-1.74,0.85-1.74a0.569,0.569,0,0,1,.25.07,1.437,1.437,0,0,0,.59.132,8.255,8.255,0,0,0,1.33-.158,10.994,10.994,0,0,1,1.66-.167,4.856,4.856,0,0,1-.85.51q-0.84.466-2.07,1.068c-0.82.4-1.64,0.775-2.47,1.12Zm0.13,1.688a47.505,47.505,0,0,0,4.36-2.021q2.715-1.432,2.73-2.03c0-.029-0.02-0.214-0.07-0.554a2.91,2.91,0,0,0-.26-1.094,1.211,1.211,0,0,0-1.08-.338c-0.43,0-1,.038-1.74.114a0.116,0.116,0,0,1,.07-0.07,17.321,17.321,0,0,0,2.19-1.687,1.308,1.308,0,0,0,.49-0.809q-0.045-.3-0.06-0.562a3.533,3.533,0,0,0-.12-0.738,0.787,0.787,0,0,0-.35-0.483,2.1,2.1,0,0,0-1.06-.2,22.18,22.18,0,0,0-3.44.413c-0.5.088-.84,0.141-1.03,0.158a0.134,0.134,0,0,0-.07.013,0.017,0.017,0,0,1-.02.013,8,8,0,0,0-.84.87,1.051,1.051,0,0,0-.25.387,0.041,0.041,0,0,0,.03.044,5.74,5.74,0,0,0,1.01.229,1.526,1.526,0,0,1,.35.07,0.163,0.163,0,0,1,.11.158,3.114,3.114,0,0,1-.36.984c-0.34.674-.86,1.981-1.58,3.92a3.107,3.107,0,0,1-.14.356,0.867,0.867,0,0,0-.07.207,0.554,0.554,0,0,0,.1.22,4.844,4.844,0,0,1,.47.9q0,0.132-.09.132a0.14,0.14,0,0,1-.08-0.018,0.078,0.078,0,0,0-.06-0.017,2.5,2.5,0,0,0-1.01.879,2.965,2.965,0,0,0-.48.624c0,0.035.07,0.053,0.2,0.053a6.314,6.314,0,0,1,1.15.229,5.068,5.068,0,0,0,1-.343h0ZM1122.56,33a8.847,8.847,0,0,1,1.03-2.795,9.8,9.8,0,0,1,.57-1.02,0.406,0.406,0,0,1,.24-0.193L1124.46,29a0.06,0.06,0,0,0,.05-0.053,0.213,0.213,0,0,0-.03-0.083,0.266,0.266,0,0,1-.04-0.119,0.856,0.856,0,0,1,.19-0.316,0.383,0.383,0,0,1,.17-0.167,4,4,0,0,1,.47-0.114,1.657,1.657,0,0,0,.41-0.132,0.159,0.159,0,0,0,.04-0.132,0.368,0.368,0,0,0-.19-0.343,0.192,0.192,0,0,1-.12-0.132,0.779,0.779,0,0,1,.32-0.36l0.02-.009a0.272,0.272,0,0,1,.15.22,3.027,3.027,0,0,1,.14.492,2.924,2.924,0,0,1,.05.422c0,0.041-.01.073-0.01,0.1a11.883,11.883,0,0,1-1.06,2.369,12.433,12.433,0,0,1-1.33,1.885,1.876,1.876,0,0,1-.96.747c-0.11,0-.17-0.091-0.17-0.273h0Zm0.98,1.7a6.26,6.26,0,0,0,1.47-1.064,8.9,8.9,0,0,0,1.34-1.67,10.032,10.032,0,0,0,.99-2.184,8.719,8.719,0,0,0,.37-2.6,1.476,1.476,0,0,0-.5-0.791,12.557,12.557,0,0,0-1.17-.888,0.877,0.877,0,0,0-.52-0.176,1.813,1.813,0,0,0-1.19.593,8.364,8.364,0,0,0-1.22,1.538,15.991,15.991,0,0,0-1.09,2.052,17.233,17.233,0,0,0-.78,2.171,6.91,6.91,0,0,0-.29,1.854,1.41,1.41,0,0,0,.62,1.38,1.359,1.359,0,0,0,.65.15A3,3,0,0,0,1123.54,34.7Zm8.99-.369a2.5,2.5,0,0,0,.32-0.721,1.327,1.327,0,0,0-.03-0.334,0.273,0.273,0,0,1-.02-0.07,1.46,1.46,0,0,1,.12-0.36c0.11-.281.41-1.119,0.88-2.514a12,12,0,0,1,1.26-2.892,0.638,0.638,0,0,0,.12-0.246,4.859,4.859,0,0,0-.12-0.624,1.5,1.5,0,0,0-.45-1.011,10.545,10.545,0,0,0-.94,1l-0.17.167a4.656,4.656,0,0,1-.45.756q-2.73,3.27-3.26,3.85a1.981,1.981,0,0,1-.81.677c-0.05,0-.08-0.05-0.08-0.149a5.3,5.3,0,0,1,.29-1.248,11.391,11.391,0,0,1,.91-2.382,0.118,0.118,0,0,1,.06.018,0.087,0.087,0,0,0,.05.018c0.03,0,.05-0.038.07-0.114a5.128,5.128,0,0,1,.33-1.169,0.908,0.908,0,0,0,.12-0.457,3.03,3.03,0,0,0-.24-0.993,1.428,1.428,0,0,0-.26-0.6,0.349,0.349,0,0,0-.2.2,4.6,4.6,0,0,1-.3.352,11.238,11.238,0,0,0-1.62,3.164,11.327,11.327,0,0,0-.91,3.753,0.789,0.789,0,0,0,.3.8,10.472,10.472,0,0,0,1.62.563q0.66,0,2.07-1.661l0.33-.351a6.731,6.731,0,0,1-.26.8,4.411,4.411,0,0,0-.35,1.169,0.285,0.285,0,0,0,.16.272,2.464,2.464,0,0,0,.54.193c0.2,0.065.43,0.149,0.71,0.255l0.09,0.018a0.178,0.178,0,0,0,.12-0.132h0Zm3.74,0.444c0.06-.155.14-0.382,0.23-0.681a28.343,28.343,0,0,1,2.65-6.24,1.307,1.307,0,0,0,.16-0.4,0.136,0.136,0,0,1,.04-0.11,1.755,1.755,0,0,1,.52-0.092q0.5-.053.57-0.07a4.548,4.548,0,0,1,.47-0.035,0.284,0.284,0,0,1,.22.079,0.272,0.272,0,0,0,.2.123,1.039,1.039,0,0,0,.43-0.967q0.09-.606.12-0.905a0.6,0.6,0,0,0-.5-0.114,16.418,16.418,0,0,0-2.29.246,22.386,22.386,0,0,0-4.13.879,3.432,3.432,0,0,1-.51.167c-0.11.023-.16,0.053-0.16,0.088a2.182,2.182,0,0,0,.34.4,7.4,7.4,0,0,0,.73.747,0.289,0.289,0,0,0,.16.053l0.52-.088c0.84-.17,1.34-0.258,1.49-0.264a0.646,0.646,0,0,1-.03.1,20.906,20.906,0,0,0-.94,1.881c-0.37.815-.75,1.749-1.12,2.8a8.54,8.54,0,0,0-.56,1.969c0,0.065.01,0.1,0.04,0.105a6.616,6.616,0,0,1,1.08.554,0.237,0.237,0,0,0,.08.017A0.27,0.27,0,0,0,1136.27,34.77Zm14.03,3.916a26.6,26.6,0,0,1,1.6-5.581q1.38-3.744,2.24-5.581,0.585-1.274.99-2.25a4.313,4.313,0,0,0,.4-1.538,7.372,7.372,0,0,0-.14-1.1,0.322,0.322,0,0,0-.18-0.294,0.8,0.8,0,0,0-.37.264,26.916,26.916,0,0,0-4.5,4.816,6.691,6.691,0,0,1-.65.8c0-.064.02-0.2,0.04-0.413a18.772,18.772,0,0,0,.15-2.092,5.479,5.479,0,0,0-.08-0.958,0.968,0.968,0,0,1-.03-0.229,0.765,0.765,0,0,1,.05-0.281,0.985,0.985,0,0,1,.08-0.18,0.2,0.2,0,0,0,.04-0.11,0.183,0.183,0,0,0-.17-0.062c-0.08-.006-0.13-0.111-0.16-0.316-0.02-.176-0.06-0.264-0.13-0.264a0.549,0.549,0,0,0-.28.193,2.962,2.962,0,0,1-.72.519q-0.555.158-2.04,3.762c-1.44,3.791-2.22,5.889-2.32,6.293a0.553,0.553,0,0,0,.12.185q0.15,0.176.72,0.993a0.068,0.068,0,0,0,.06.035c0.17,0,.55-0.73,1.12-2.188,0.24-.609.48-1.207,0.7-1.793,0.81-2.244,1.27-3.433,1.36-3.568a7.358,7.358,0,0,0-.15,1.239,0.912,0.912,0,0,0,.21.677,2.555,2.555,0,0,0,.69.422q0.27,0.141.66,0.36a0.177,0.177,0,0,0,.09.026,2.536,2.536,0,0,0,1.21-1.1q0.345-.448.66-0.888a4.18,4.18,0,0,1,.74-0.905l-0.3.712q-3.27,8.147-3.27,9.378a0.437,0.437,0,0,0,.13.387l0.74,0.431a2.029,2.029,0,0,0,.61.325c0.05,0,.08-0.041.08-0.123h0Zm6.9-4.412a7.711,7.711,0,0,0,1.24-.809,0.279,0.279,0,0,0,.05-0.15l-0.01-.123a5.964,5.964,0,0,1-.05-0.993c-0.01-.176-0.06-0.264-0.14-0.264a1.153,1.153,0,0,0-.47.185c-0.3.176-.9,0.539-1.78,1.09a0.487,0.487,0,0,1-.25.053q-0.225,0-.24-0.132l0.01-.035a11.483,11.483,0,0,1,.73-1.63,1.615,1.615,0,0,1,.62-0.685,2.089,2.089,0,0,1,.84-0.167c0.35-.009.71-0.016,1.06-0.022l0.16,0.009q0.3-.009.3-0.1a0.593,0.593,0,0,0-.14-0.272,3.939,3.939,0,0,1-.46-0.738,1.1,1.1,0,0,0-.17-0.312,0.35,0.35,0,0,0-.28-0.11,3.12,3.12,0,0,0-.34.026,0.134,0.134,0,0,1-.1-0.018c0.03-.053.09-0.138,0.17-0.255a0.544,0.544,0,0,1,.2-0.22,0.3,0.3,0,0,1,.1.044,0.143,0.143,0,0,0,.07.026,0.333,0.333,0,0,0,.09-0.158,1.045,1.045,0,0,0,.04-0.628,0.5,0.5,0,0,1-.03-0.145q0-.149.45-0.167,0.63-.035.99-0.07c0.18-.018.34-0.026,0.46-0.026a0.383,0.383,0,0,1,.19.035,3.372,3.372,0,0,0,1.22.536q0.24,0,.24-0.325a2.275,2.275,0,0,0-.04-0.435,4.067,4.067,0,0,1-.04-0.532,2.661,2.661,0,0,1,.02-0.4c-0.02-.287-0.55-0.431-1.62-0.431a16.269,16.269,0,0,0-3.01.334,11.485,11.485,0,0,0-2.75.879,0.115,0.115,0,0,0-.07.088,1.373,1.373,0,0,0,.79.554,4.412,4.412,0,0,0,.88.343,0.05,0.05,0,0,0,.06-0.053q0-.123.24-0.167v0.018a1.673,1.673,0,0,1-.16.246,6.418,6.418,0,0,1-1.04,1.512l-0.42.123a2.232,2.232,0,0,0-.55.624,4.017,4.017,0,0,1-.3.36,0.6,0.6,0,0,0-.19.3c0,0.07.15,0.105,0.46,0.105h0.21V31.25l-0.02.061a4.185,4.185,0,0,0-.63,1.916,0.879,0.879,0,0,0,.28.62,3.1,3.1,0,0,0,.67.492,3.942,3.942,0,0,0,.76.33,2.09,2.09,0,0,0,.56.114,3.664,3.664,0,0,0,1.14-.51h0Z" transform="translate(-1102.97 -22.219)"/>
    <path id="_" data-name="&gt;&gt;" class="cls-2" d="M1166.52,34.317l0.15-.1q0.135-.1.15-0.11a0.093,0.093,0,0,0,.02-0.017,0.023,0.023,0,0,0,.02-0.018,0.274,0.274,0,0,1,.04-0.022V34.045h0.02V34.036a0.046,0.046,0,0,0,.03-0.013,0.224,0.224,0,0,1,.04-0.031,0.388,0.388,0,0,0,.06-0.044,0.226,0.226,0,0,1,.07-0.044,0.212,0.212,0,0,0,.05-0.035,0.14,0.14,0,0,0,.04-0.035,0.159,0.159,0,0,1,.04-0.026,0.035,0.035,0,0,0,.02-0.018,0.253,0.253,0,0,1,.05-0.026,0.212,0.212,0,0,0,.05-0.035q2.13-1.477,3.87-2.751a6.465,6.465,0,0,0,.89-0.721V30.213a9.272,9.272,0,0,0,.15-1.3,0.42,0.42,0,0,0-.14-0.4,1.882,1.882,0,0,0-.6-0.061,7.316,7.316,0,0,1-1.29-.158,9.657,9.657,0,0,1-2.38-.923,1.471,1.471,0,0,1-.41-0.308,0.245,0.245,0,0,0-.17-0.123,4.644,4.644,0,0,0-1.09.589c-0.1.07-.22,0.144-0.35,0.22a0.074,0.074,0,0,0-.04.07,0.569,0.569,0,0,0,.33.334q0.345,0.2.69,0.387,0.315,0.158.45,0.246a6.607,6.607,0,0,0,2.89,1.125l0.18,0.035c-0.54.352-1.08,0.712-1.61,1.081q-3.555,2.549-3.62,2.61a0.389,0.389,0,0,0,.24.149,6.194,6.194,0,0,1,1,.563,0.071,0.071,0,0,0,.05.026,0.183,0.183,0,0,0,.11-0.053h0Zm5.81,0s0.05-.032.14-0.1,0.15-.1.16-0.11a0.055,0.055,0,0,1,.02-0.017,0.054,0.054,0,0,0,.02-0.018,0.094,0.094,0,0,1,.04-0.022V34.045h0.02V34.036a0.083,0.083,0,0,0,.03-0.013,0.224,0.224,0,0,1,.04-0.031,0.388,0.388,0,0,0,.06-0.044,0.4,0.4,0,0,1,.06-0.044,0.155,0.155,0,0,0,.06-0.035c0.01-.012.03-0.023,0.04-0.035a0.122,0.122,0,0,1,.03-0.026,0.037,0.037,0,0,0,.03-0.018,0.253,0.253,0,0,1,.05-0.026,0.212,0.212,0,0,0,.05-0.035q2.13-1.477,3.87-2.751a5.414,5.414,0,0,0,.88-0.721c0-.018.01-0.032,0.01-0.044a9.272,9.272,0,0,0,.15-1.3,0.42,0.42,0,0,0-.14-0.4,1.914,1.914,0,0,0-.61-0.061,7.331,7.331,0,0,1-1.28-.158,9.657,9.657,0,0,1-2.38-.923,1.471,1.471,0,0,1-.41-0.308,0.245,0.245,0,0,0-.17-0.123,4.644,4.644,0,0,0-1.09.589c-0.11.07-.22,0.144-0.35,0.22a0.085,0.085,0,0,0-.05.07,0.6,0.6,0,0,0,.34.334q0.345,0.2.69,0.387,0.315,0.158.45,0.246a6.561,6.561,0,0,0,2.89,1.125l0.18,0.035c-0.54.352-1.08,0.712-1.61,1.081q-3.555,2.549-3.62,2.61a0.389,0.389,0,0,0,.24.149,6.651,6.651,0,0,1,1,.563,0.057,0.057,0,0,0,.05.026,0.211,0.211,0,0,0,.11-0.053h0Z" transform="translate(-1102.97 -22.219)"/>
  </g>
</svg>
