<svg xmlns="http://www.w3.org/2000/svg"  viewBox="0 0 232 44">
<defs>
    <style>
      .cls-1 {
        fill: #fff;
        fill-rule: evenodd;
      }
    </style>
  </defs>
  <path class="cls-1" d="M299.76,54.807a11.565,11.565,0,0,1-3.7,8.618,12.343,12.343,0,0,1-8.908,3.58h-0.479a12.427,12.427,0,0,1-8.933-3.58,11.525,11.525,0,0,1-3.723-8.618V35.555a11.425,11.425,0,0,1,3.737-8.592,12.565,12.565,0,0,1,8.972-3.553h0.481a12.29,12.29,0,0,1,8.891,3.553,11.543,11.543,0,0,1,3.658,8.592V37.3a2.026,2.026,0,0,1-.665,1.459,2.148,2.148,0,0,1-1.569.663h-4.467a2.233,2.233,0,0,1-1.6-.663,1.992,1.992,0,0,1-.692-1.459V36.721a5.834,5.834,0,0,0-1.078-3.607,3.17,3.17,0,0,0-2.588-1.432,3.557,3.557,0,0,0-2.778,1.459,5.408,5.408,0,0,0-1.214,3.58V54.064a5.374,5.374,0,0,0,1.189,3.554,3.477,3.477,0,0,0,2.721,1.432,3.407,3.407,0,0,0,2.693-1.432,5.459,5.459,0,0,0,1.162-3.554V52.685a1.907,1.907,0,0,1,2.139-2.175h4.5a2.24,2.24,0,0,1,1.6.61,2.06,2.06,0,0,1,.643,1.565v2.121Zm32.492,9.282a2.022,2.022,0,0,1,.106.636,1.559,1.559,0,0,1-.557,1.193,1.949,1.949,0,0,1-1.354.5h-4.62q-1.433,0-2.124-1.861l-5.424-14.9a0.808,0.808,0,0,0-.374-0.579h-2.349a0.569,0.569,0,0,0-.587.69V64.354a1.978,1.978,0,0,1-.638,1.432,2.105,2.105,0,0,1-1.543.636h-4.36a1.972,1.972,0,0,1-1.49-.61,2.032,2.032,0,0,1-.585-1.459V26.007a1.808,1.808,0,0,1,2.075-2.015h10.9a12.455,12.455,0,0,1,8.642,3.182,10.552,10.552,0,0,1,3.536,8.221v2.016a10.907,10.907,0,0,1-5.477,9.759Zm-9.094-25.776V35.077a3.1,3.1,0,0,0-1.063-2.36,3.637,3.637,0,0,0-2.553-.981h-4.094c-0.32,0-.479.212-0.479,0.637v8.645a0.516,0.516,0,0,0,.585.583h3.988a3.694,3.694,0,0,0,2.553-.954,3.02,3.02,0,0,0,1.063-2.334m41.479,25.776a1.716,1.716,0,0,1-.428,1.618,2.064,2.064,0,0,1-1.6.716h-4.811q-1.71,0-2.138-2.058l-1.29-6.055a0.736,0.736,0,0,0-.638-0.744h-6.485a0.815,0.815,0,0,0-.851.743l-1.115,6.046a2.145,2.145,0,0,1-2.233,2.068h-4.73a1.894,1.894,0,0,1-1.543-.716,1.916,1.916,0,0,1-.424-1.618l7.87-38.081a2.1,2.1,0,0,1,2.181-2.015H354a2.144,2.144,0,0,1,2.181,2.015ZM352.46,48.761l-2.34-12.517-2.18,12.464q-0.108.69,0.479,0.69h3.456a0.5,0.5,0,0,0,.585-0.637m41.16,6.683A10.721,10.721,0,0,1,390,63.956a13.483,13.483,0,0,1-9.2,3.156q-8.988,0-12.55-8.327a11.927,11.927,0,0,1-1.223-3.713q0-1.432,2.227-2.28,1.59-.477,3.18-0.9a2.281,2.281,0,0,1,.8-0.159q1.272,0,2.121,1.962,1.431,3.236,1.643,3.553a4.4,4.4,0,0,0,3.765,1.909q3.975,0,3.976-3.713,0-2.493-4.293-6.046-4.031-3.287-8.059-6.524-4.293-4.242-4.293-8.486a10.092,10.092,0,0,1,3.616-8.168,12.952,12.952,0,0,1,16.114,0,14.837,14.837,0,0,1,4.414,6.895,2.724,2.724,0,0,1,.106.743q0,1.326-1.914,2.121l-2.978.849a2.512,2.512,0,0,1-.692.106,2.051,2.051,0,0,1-2.021-1.379q-2.181-4.984-4.892-4.985a3.152,3.152,0,0,0-2.42,1.167,3.885,3.885,0,0,0-1.037,2.652q0,1.8,4.467,5.25a96.873,96.873,0,0,1,8.3,6.736q4.467,4.509,4.467,9.069m29.3,8.8a2.221,2.221,0,0,1-2.233,2.175h-4.415a2.049,2.049,0,0,1-1.6-.716,2.194,2.194,0,0,1-.638-1.459V50.193a0.685,0.685,0,0,0-.8-0.743h-5.732a0.637,0.637,0,0,0-.7.743V64.248a2.157,2.157,0,0,1-.66,1.459,2.057,2.057,0,0,1-1.56.716h-4.44a2.128,2.128,0,0,1-1.56-.663,2.086,2.086,0,0,1-.66-1.512V26.167a2.058,2.058,0,0,1,.66-1.538,2.174,2.174,0,0,1,1.56-.637h4.44a2.174,2.174,0,0,1,1.56.637,2.058,2.058,0,0,1,.66,1.538V40.54a0.637,0.637,0,0,0,.7.743h5.732a0.685,0.685,0,0,0,.8-0.743V26.167a2.222,2.222,0,0,1,2.233-2.175h4.415a2.168,2.168,0,0,1,1.595.637,2.094,2.094,0,0,1,.638,1.538V64.248Zm16.166,0a2.077,2.077,0,0,1-.666,1.512,2.144,2.144,0,0,1-1.567.663h-4.573a2.221,2.221,0,0,1-2.234-2.175V26.167a2.094,2.094,0,0,1,.638-1.538,2.167,2.167,0,0,1,1.6-.637h4.573a2.19,2.19,0,0,1,1.567.637,2.049,2.049,0,0,1,.666,1.538V64.248Zm33.927,0.106a1.945,1.945,0,0,1-.639,1.459,2.16,2.16,0,0,1-1.545.61h-4.159a2.467,2.467,0,0,1-2.237-1.688l-9.5-20.55V64.352a1.916,1.916,0,0,1-.665,1.461,2.243,2.243,0,0,1-1.569.61h-4.36a1.974,1.974,0,0,1-1.49-.61,2.035,2.035,0,0,1-.584-1.459V26.114a2.1,2.1,0,0,1,.584-1.512,1.979,1.979,0,0,1,1.49-.61h4.36a2.7,2.7,0,0,1,2.5,1.856l9.2,19.781V26.167a2.019,2.019,0,0,1,.691-1.538,2.288,2.288,0,0,1,1.6-.636h4.147a2.175,2.175,0,0,1,2.18,2.175V64.354Zm32.387-.106a2.221,2.221,0,0,1-2.234,2.175h-0.8q-1.543,0-2.5-2.546a0.4,0.4,0,0,1-.054.159,7.966,7.966,0,0,1-6.647,2.97h-0.958a12.123,12.123,0,0,1-12.6-12.358V35.608a11.576,11.576,0,0,1,3.689-8.619,12.3,12.3,0,0,1,8.888-3.58h0.478a12.125,12.125,0,0,1,8.836,3.58,11.664,11.664,0,0,1,3.636,8.619v1.7a2.054,2.054,0,0,1-.665,1.538,2.2,2.2,0,0,1-1.569.637h-4.1a2.152,2.152,0,0,1-1.594-.716,2.112,2.112,0,0,1-.691-1.459V36.721a5.418,5.418,0,0,0-1.215-3.58,3.341,3.341,0,0,0-5.521,0,5.48,5.48,0,0,0-1.188,3.58V53.8a5.64,5.64,0,0,0,1.055,3.607,3.516,3.516,0,0,0,2.906,1.326q3.962,0,3.963-4.932V52.1a0.632,0.632,0,0,0-.739-0.689h-2.156a2.231,2.231,0,0,1-1.554-.663,2.072,2.072,0,0,1-.71-1.565V46.427a2.078,2.078,0,0,1,.665-1.512,2.208,2.208,0,0,1,1.622-.663h9.519a2.05,2.05,0,0,1,1.6.716,2.195,2.195,0,0,1,.638,1.459v17.82Zm-3.61-38.811a0.769,0.769,0,0,1-.6-0.216l0.207-.206a0.538,0.538,0,0,0,.4.137c0.188,0,.289-0.071.289-0.2a0.182,0.182,0,0,0-.05-0.137,0.244,0.244,0,0,0-.145-0.057l-0.2-.028a0.553,0.553,0,0,1-.317-0.135,0.429,0.429,0,0,1-.118-0.322,0.5,0.5,0,0,1,.571-0.5,0.7,0.7,0,0,1,.529.191l-0.2.2a0.458,0.458,0,0,0-.337-0.113,0.216,0.216,0,0,0-.252.207,0.155,0.155,0,0,0,.048.117,0.278,0.278,0,0,0,.152.064l0.193,0.028a0.542,0.542,0,0,1,.313.126,0.458,0.458,0,0,1,.126.346A0.528,0.528,0,0,1,501.792,25.437Zm2.072-.014V24.471l-0.313.619h-0.217l-0.315-.619v0.952H502.7V23.789h0.316l0.427,0.883,0.426-.883h0.315v1.634h-0.319Z" transform="translate(-274.031 -23.406)"/>
</svg>
